<svg xmlns="http://www.w3.org/2000/svg" width="169" height="90.139" viewBox="0 0 169 90.139"><defs><style>.a{fill:#fff;}</style></defs><g transform="translate(0 -0.026)"><path class="a" d="M25.727,319.967a2.2,2.2,0,1,0-2.071-2.194,2.072,2.072,0,0,0,2.071,2.194m0-5.167a2.978,2.978,0,1,1-2.888,2.977,2.978,2.978,0,0,1,2.888-2.977" transform="translate(-22.437 -232.538)"/><path class="a" d="M50.49,319.967a2.2,2.2,0,1,0-1.942-2.194,1.973,1.973,0,0,0,1.942,2.194m-2.77-5.027h.823v.894a2.356,2.356,0,0,1,1.975-1.034,2.988,2.988,0,0,1,.066,5.954,2.35,2.35,0,0,1-2.007-1.059v2.954H47.72Z" transform="translate(-40.494 -232.538)"/><path class="a" d="M75.818,317.316a1.741,1.741,0,0,0-1.81-1.777,1.835,1.835,0,0,0-1.821,1.777Zm-1.81-2.518a2.639,2.639,0,0,1,2.693,2.9v.274H72.143A1.92,1.92,0,0,0,74.183,320a2.081,2.081,0,0,0,1.766-.883l.565.4a2.633,2.633,0,0,1-2.342,1.234A2.982,2.982,0,0,1,74,314.79" transform="translate(-57.578 -232.531)"/><path class="a" d="M99.129,317.075v3.546h-.861v-3.565a1.319,1.319,0,0,0-1.341-1.451,1.456,1.456,0,0,0-1.47,1.582v3.434H94.59v-5.674h.853v.823a1.92,1.92,0,0,1,1.689-.96,2,2,0,0,1,2,2.268" transform="translate(-74.51 -232.545)"/><path class="a" d="M115.472,309.888h.85v5.674h-.85Zm.425-2.049a.6.6,0,1,1-.587.59.587.587,0,0,1,.587-.59" transform="translate(-89.547 -227.486)"/><path class="a" d="M128.528,317.075v3.546h-.861v-3.565a1.32,1.32,0,0,0-1.341-1.451,1.458,1.458,0,0,0-1.473,1.582v3.434H124v-5.674h.85v.823a1.92,1.92,0,0,1,1.692-.96,2,2,0,0,1,1.994,2.268" transform="translate(-95.854 -232.545)"/><path class="a" d="M146.667,315.583a2.2,2.2,0,1,0,1.942,2.194,1.98,1.98,0,0,0-1.942-2.194m-1.8,5.877a3.538,3.538,0,0,0,1.711.469c1.081,0,2-.447,2-1.711v-.5a2.292,2.292,0,0,1-1.964,1.037,2.988,2.988,0,0,1-.016-5.954,2.358,2.358,0,0,1,2.007,1.056v-.916h.823v4.887a2.538,2.538,0,0,1-2.847,2.877,4.14,4.14,0,0,1-2.027-.565Z" transform="translate(-110.275 -232.537)"/><path class="a" d="M179.963,310.1a2.014,2.014,0,0,0-1.92,2.213,1.939,1.939,0,1,0,1.92-2.213m2.77,5.03h-.839v-.894a2.326,2.326,0,0,1-1.964,1.037,2.988,2.988,0,0,1-.063-5.954,2.32,2.32,0,0,1,1.994,1.056V307.24h.872Z" transform="translate(-134.436 -227.051)"/><path class="a" d="M203.955,319.964a2.2,2.2,0,1,0-2.071-2.194,2.073,2.073,0,0,0,2.071,2.194m0-5.167A2.978,2.978,0,1,1,201,317.772a2.882,2.882,0,0,1,2.965-2.976" transform="translate(-151.733 -232.535)"/><path class="a" d="M228.673,319.963a2.2,2.2,0,1,0-2.073-2.194,2.072,2.072,0,0,0,2.073,2.194m0-5.167a2.978,2.978,0,1,1-2.967,2.976,2.882,2.882,0,0,1,2.967-2.976" transform="translate(-169.667 -232.534)"/><path class="a" d="M253.412,315.636c-1.3,0-1.678,1.026-1.678,2.235v2.718h-.864v-5.671h.858v.946a1.755,1.755,0,0,1,1.689-1.1Z" transform="translate(-187.931 -232.513)"/><path class="a" d="M263.24,319.142a1.506,1.506,0,0,0,1.415.872.941.941,0,0,0,1.048-.905c0-1.308-2.847-.861-2.847-2.781a1.616,1.616,0,0,1,1.821-1.536,1.8,1.8,0,0,1,1.755,1.1l-.631.362a1.212,1.212,0,0,0-1.179-.732.831.831,0,0,0-.935.784c0,1.278,2.855.8,2.855,2.77a1.743,1.743,0,0,1-1.92,1.681,2.018,2.018,0,0,1-1.972-1.212Z" transform="translate(-196.48 -232.53)"/><path class="a" d="M40.323,80.124,33.741,99.645H29.627L21.37,75.07h4.064L31.863,95.3s.047-.1,6.618-20.228h3.686C48.687,95.2,48.748,95.3,48.748,95.3L55.223,75.07h4.064L50.969,99.645H46.855Z" transform="translate(-21.37 -58.552)"/><path class="a" d="M168.97,63.279H172.7V85.827H168.97Zm1.843-7.369a2.55,2.55,0,1,1-1.805.746,2.575,2.575,0,0,1,1.805-.746" transform="translate(-127.976 -44.647)"/><path class="a" d="M219.383,82.666V98.024h-3.735v-15.5c0-3.922-2.468-6.286-5.811-6.286-3.782,0-6.382,2.789-6.382,6.856V98.029H199.72V73.452h3.689V77a8.336,8.336,0,0,1,7.325-4.158c5.718,0,8.65,4.251,8.65,9.829" transform="translate(-150.809 -56.934)"/><path class="a" d="M281.975,56.28h3.732v5.153H291.1V64.6h-5.389V77.265c0,4.585,1.325,5.671,4.539,5.671.472,0,1.039-.047,1.039-.047V86.2a17.737,17.737,0,0,1-2.268.143c-4.917,0-7.043-3.214-7.043-8.743v-13H279.09V61.433h2.885Z" transform="translate(-208.412 -44.915)"/><path class="a" d="M349.03,83.719c-.236-5.106-3.782-7.706-7.846-7.706a7.952,7.952,0,0,0-7.893,7.706ZM341.184,72.8c7.232,0,11.675,5.211,11.675,12.571,0,.14,0,.661-.047,1.133H333.1c.049,5.485,3.735,8.792,8.839,8.792a8.977,8.977,0,0,0,7.657-3.839l2.468,1.8a11.433,11.433,0,0,1-10.161,5.34c-7.468,0-12.615-5.246-12.615-12.807,0-7.846,5.389-13,11.91-13" transform="translate(-244.845 -56.898)"/><path class="a" d="M436.921,76.57c-5.625,0-7.278,4.443-7.278,9.689V98.027H425.91V73.452H429.6v4.114a7.6,7.6,0,0,1,7.325-4.725Z" transform="translate(-314.967 -56.934)"/><path class="a" d="M41.7,203.007a10.555,10.555,0,0,0-7.4-3.121c-5.249,0-8.957,4.114-8.957,9.453,0,5.3,3.9,9.5,9.05,9.5a10.561,10.561,0,0,0,7.468-3.261l1.155,3.168a12.542,12.542,0,0,1-8.776,3.5,12.9,12.9,0,0,1-.049-25.793A12.725,12.725,0,0,1,43,199.807Z" transform="translate(-21.37 -146.645)"/><path class="a" d="M117.04,218.8c5.293,0,9.075-4.018,9.075-9.5,0-5.436-3.782-9.5-9.075-9.5s-8.981,4.114-8.981,9.5c0,5.532,3.735,9.5,8.981,9.5m.047-22.4a12.9,12.9,0,1,1-12.857,12.889A12.49,12.49,0,0,1,117.087,196.4" transform="translate(-81.506 -146.608)"/><path class="a" d="M241.17,221.592h-3.732V206.8c0-4.632-1.89-7-5.529-7-3.45,0-6.05,2.468-6.05,7.043v14.746h-3.735v-15.5c0-3.922-2.175-6.286-5.622-6.286-3.264,0-5.957,2.742-5.957,6.9v14.889H206.81V197.014H210.5v3.546a7.6,7.6,0,0,1,6.947-4.16c3.686,0,6.286,1.8,7.421,4.492a8.391,8.391,0,0,1,7.893-4.492c5.485,0,8.411,3.875,8.411,9.264Z" transform="translate(-155.954 -146.608)"/><path class="a" d="M342.842,193.058H340.1V189.89h2.742v-1.275c0-6.19,3.732-8.175,7.7-8.175a14.478,14.478,0,0,1,1.56.093v3.261a9.16,9.16,0,0,0-1.182-.093c-2.789,0-4.3,1.511-4.3,4.914v1.275h5.241v3.168h-5.241v16.951h-3.782Z" transform="translate(-252.69 -135.025)"/><path class="a" d="M401.687,218.8c5.293,0,9.075-4.018,9.075-9.5,0-5.436-3.782-9.5-9.075-9.5s-8.979,4.114-8.979,9.5c0,5.532,3.732,9.5,8.979,9.5m.047-22.4a12.9,12.9,0,1,1-12.854,12.889A12.493,12.493,0,0,1,401.734,196.4" transform="translate(-288.093 -146.608)"/><path class="a" d="M502.471,200.13c-5.625,0-7.278,4.443-7.278,9.689v11.768H491.46V197.014h3.686v4.114a7.6,7.6,0,0,1,7.325-4.728Z" transform="translate(-362.541 -146.608)"/><path class="a" d="M541.5,179.86h3.732v5.15h5.389v3.167h-5.389v12.667c0,4.585,1.325,5.671,4.539,5.671.472,0,1.039-.049,1.039-.049v3.324a17.757,17.757,0,0,1-2.271.143c-4.915,0-7.04-3.214-7.04-8.743v-13H538.61V185.01H541.5Z" transform="translate(-396.76 -134.604)"/><path class="a" d="M385.453,101.821h-91.7a1.508,1.508,0,1,1,0-3.017h90.2V35.637L366.878,18.571l-17,17V54.719a1.508,1.508,0,1,1-3.017,0V34.938a1.508,1.508,0,0,1,.453-1.061l18.5-18.5a1.514,1.514,0,0,1,2.134,0l18.569,18.569a1.508,1.508,0,0,1,.441,1.067v65.3a1.508,1.508,0,0,1-1.5,1.508Z" transform="translate(-217.956 -14.91)"/></g></svg>